<svg width="28" height="25" viewBox="0 0 28 25" fill="none" xmlns="http://www.w3.org/2000/svg">
<path fill-rule="evenodd" clip-rule="evenodd" d="M27.1921 9.17402L19.0349 1.94122C16.1012 -0.647074 11.3603 -0.647074 8.42664 1.94122L0.269452 9.17402C0.00668654 9.40531 -0.0722505 9.75453 0.0696966 10.0577C0.211644 10.361 0.546288 10.5579 0.916537 10.5563H2.29894V18.441C2.30434 21.6366 5.22462 24.226 8.82861 24.2308H10.2306C10.7358 24.226 11.1425 23.8615 11.1424 23.4136V16.7719H16.3191V23.4136C16.3191 23.8615 16.7257 24.226 17.2309 24.2308H18.6329C22.2369 24.226 25.1572 21.6366 25.1626 18.441V10.5563H26.545C26.9152 10.5579 27.2499 10.361 27.3918 10.0577C27.5338 9.75453 27.4549 9.40531 27.1921 9.17402ZM9.64899 3.12576C10.731 2.23259 12.1995 1.73071 13.7308 1.73071C15.2622 1.73071 16.7307 2.23259 17.8127 3.12576L24.5193 8.65379H2.94238L9.64899 3.12576ZM18.7396 22.4997C21.3875 22.4949 23.5327 20.6231 23.5382 18.3126V10.3843H3.92285V18.3126C3.92836 20.6231 6.07357 22.4949 8.72151 22.4997H9.21239V15.8126C9.21789 15.3622 9.63789 14.9996 10.1541 14.9997H17.307C17.8232 14.9996 18.2432 15.3622 18.2487 15.8126V22.4997H18.7396Z" fill="#371B34"/>
<path d="M27.1921 9.17402L19.0349 1.94122C16.1013 -0.647074 11.3603 -0.647074 8.42664 1.94122L0.269452 9.17402C0.00668654 9.40531 -0.0722505 9.75453 0.0696966 10.0577C0.211644 10.361 0.546288 10.5579 0.916537 10.5563H2.29894V18.441C2.30434 21.6366 5.22462 24.226 8.82861 24.2308H10.2306C10.7358 24.226 11.1425 23.8615 11.1424 23.4136V16.7719H16.3191V23.4136C16.3191 23.8615 16.7258 24.226 17.2309 24.2308H18.6329C22.2369 24.226 25.1572 21.6366 25.1626 18.441V10.5563H26.545C26.9152 10.5579 27.2499 10.361 27.3918 10.0577C27.5338 9.75453 27.4549 9.40531 27.1921 9.17402Z" fill="#9E9C9C"/>
</svg>
