<svg width="21" height="21" viewBox="0 0 21 21" fill="none" xmlns="http://www.w3.org/2000/svg">
<mask id="mask0_193_2440" style="mask-type:luminance" maskUnits="userSpaceOnUse" x="0" y="0" width="21" height="21">
<path d="M0 0H21V21H0V0Z" fill="white"/>
</mask>
<g mask="url(#mask0_193_2440)">
<path d="M20.538 3.56596C20.2439 2.87039 19.8242 2.24574 19.2887 1.71025C18.7532 1.17476 18.1285 0.754785 17.433 0.460951C16.7138 0.156478 15.9501 0.00170898 15.1626 0.00170898H5.83463C5.04736 0.00170898 4.28364 0.156478 3.56172 0.460951C2.86615 0.754785 2.2415 1.17476 1.70626 1.71025C1.17078 2.24574 0.750796 2.87039 0.456709 3.56596C0.155023 4.2851 0 5.04881 0 5.83608V15.1615C0 15.949 0.155023 16.7127 0.459495 17.4344C0.753329 18.13 1.17331 18.7546 1.7088 19.2901C2.24428 19.8256 2.86893 20.2456 3.56451 20.5394C4.28364 20.8439 5.04989 20.9987 5.83741 20.9987H15.1626C15.9501 20.9987 16.7138 20.8439 17.4355 20.5394C18.1311 20.2456 18.7557 19.8256 19.2912 19.2901C19.8267 18.7546 20.2467 18.13 20.5405 17.4344C20.845 16.7153 21 15.949 21 15.1615V5.83608C20.9972 5.04881 20.8424 4.2851 20.538 3.56596ZM18.5485 15.1643C18.5485 17.0304 17.0287 18.55 15.1626 18.55H5.83463C3.96853 18.55 2.44895 17.0304 2.44895 15.1643V5.83608C2.44895 3.96999 3.96853 2.45041 5.83463 2.45041H15.1601C17.0261 2.45041 18.5457 3.96999 18.5457 5.83608V15.1643H18.5485ZM16.7427 7.14846L9.77681 15.4293C9.54327 15.7048 9.20206 15.8649 8.83984 15.8649C8.47761 15.8649 8.13388 15.7048 7.90286 15.4267L4.25476 11.0828C3.81908 10.5658 3.88722 9.79144 4.40421 9.35854C4.92121 8.92286 5.69556 8.991 6.12872 9.50799L8.83731 12.7364L14.8662 5.57113C15.3019 5.05413 16.0735 4.98574 16.5905 5.42142C17.1102 5.85711 17.1759 6.63146 16.7427 7.14846Z" fill="#53A06E"/>
</g>
</svg>
