<svg width="72" height="72" viewBox="0 0 72 72" fill="none" xmlns="http://www.w3.org/2000/svg">
<circle cx="36" cy="36" r="36" fill="#53A06E"/>
<path d="M38.8605 49.5697C45.0431 49.5697 48.1353 49.5697 50.0552 47.6482C51.9767 45.7283 51.9767 42.6361 51.9767 36.4534C51.9767 30.2708 51.9767 27.1786 50.0552 25.2587C48.1353 23.3372 45.0431 23.3372 38.8605 23.3372H32.3023C26.1196 23.3372 23.0275 23.3372 21.1076 25.2587C19.186 27.1786 19.186 30.2708 19.186 36.4534C19.186 42.6361 19.186 45.7283 21.1076 47.6482C22.1782 48.7204 23.6128 49.1943 25.7442 49.4025" stroke="white" stroke-width="2.6" stroke-linecap="round" stroke-linejoin="round"/>
<path d="M38.8604 49.5699C36.8339 49.5699 34.6009 50.3897 32.5629 51.4472C29.2871 53.1474 27.6492 53.9983 26.8426 53.4556C26.0359 52.9146 26.1884 51.234 26.495 47.8746L26.5639 47.1106" stroke="white" stroke-width="2.6" stroke-linecap="round"/>
</svg>
