<svg width="73" height="73" viewBox="0 0 73 73" fill="none" xmlns="http://www.w3.org/2000/svg">
<path d="M71.2857 40.5989C73.5716 38.3148 73.5716 34.598 71.2849 32.3139L67.2497 28.2823C67.2338 28.2656 67.2259 28.2392 67.2321 28.2181L68.7255 22.6684C69.5672 19.5567 67.7097 16.3351 64.5821 15.4872L59.0342 13.9947C59.0157 13.9903 58.9929 13.9692 58.9867 13.9454L57.4942 8.4072C57.0887 6.89621 56.1178 5.63236 54.7589 4.84872C53.4019 4.06684 51.8214 3.85927 50.306 4.26473L44.7458 5.76252C44.7229 5.76868 44.6974 5.76164 44.6798 5.74493L40.6464 1.71416C39.54 0.609498 38.0668 0 36.4986 0C34.9305 0 33.4573 0.608618 32.3509 1.71416L28.3148 5.74669C28.299 5.7634 28.2717 5.77132 28.2506 5.76516L22.6939 4.27352C21.1794 3.86807 19.5998 4.07475 18.2454 4.85663C16.8865 5.63675 15.9138 6.90061 15.5075 8.41424L14.0132 13.9578C14.0079 13.9754 13.9868 13.9991 13.963 14.0053L8.41951 15.4978C6.90676 15.9032 5.64115 16.8733 4.85663 18.2313C4.07387 19.5857 3.86631 21.1662 4.27176 22.6798L5.76956 28.2339C5.77572 28.2559 5.7678 28.2832 5.75197 28.2999L1.71504 32.3324C-0.571679 34.6165 -0.571679 38.3342 1.71504 40.6182L5.74405 44.6437C5.76077 44.6604 5.76868 44.6877 5.7634 44.7079L4.26912 50.2594C3.72735 52.2752 4.31134 54.4467 5.79331 55.9278C6.51186 56.6455 7.41688 57.1688 8.41336 57.4397L13.9613 58.9322C13.9798 58.9366 14.0026 58.9586 14.0088 58.9814L15.4987 64.5091C15.759 65.5065 16.2841 66.4194 17.0149 67.1503C17.4037 67.5382 17.8214 67.8513 18.2577 68.0817C19.6103 68.8565 21.1847 69.0597 22.6948 68.656L28.2541 67.1591C28.277 67.1529 28.3034 67.16 28.3201 67.1767L32.3553 71.2075C33.4986 72.3499 34.9999 72.9207 36.5021 72.9207C38.0043 72.9199 39.5065 72.3491 40.6499 71.2066L44.6807 67.1802C44.6895 67.1714 44.7194 67.1591 44.7493 67.167L50.3069 68.663C51.8205 69.0747 53.4036 68.8697 54.7677 68.087C56.131 67.3024 57.1046 66.0404 57.5092 64.5338L59.0034 58.9911C59.0096 58.9691 59.0404 58.9357 59.0527 58.9322L64.6024 57.4423C66.1125 57.0281 67.3737 56.0544 68.1547 54.6965C68.9287 53.3368 69.1327 51.7589 68.729 50.2523L67.2303 44.7C67.2251 44.6772 67.2321 44.6499 67.2488 44.6332L71.2857 40.5989ZM55.1169 26.8821C55.0597 27.8285 54.6349 28.6948 53.9208 29.3219L31.6701 48.9049C31.0035 49.4907 30.1671 49.7941 29.3183 49.7941C28.7774 49.7941 28.2321 49.671 27.7229 49.4186C27.3043 49.2216 26.9199 48.9348 26.5989 48.5734L18.7379 39.7422C18.1064 39.0334 17.7907 38.1213 17.8487 37.1758C17.9076 36.2295 18.3324 35.3623 19.0466 34.7352C20.5171 33.4441 22.7704 33.5813 24.0703 35.0422L29.6051 41.2576L49.204 24.0123C50.6736 22.7203 52.9269 22.8575 54.2268 24.3157C54.8583 25.0246 55.1749 25.9358 55.1169 26.8821Z" fill="#FE8235"/>
</svg>
