<svg width="20" height="18" viewBox="0 0 20 18" fill="none" xmlns="http://www.w3.org/2000/svg">
<path d="M9.80871 17.7407C9.61441 17.7407 9.42183 17.6734 9.26735 17.5505C4.13187 13.4905 -0.110405 9.83456 0.00219094 6.2023C0.00390733 4.49448 0.474546 3.00979 1.36227 1.90511C2.16864 0.90204 3.30181 0.244656 4.55135 0.0561945C5.72812 -0.120939 6.93029 0.123478 7.93817 0.749966C8.72634 1.2388 9.36004 1.92879 9.80871 2.77979C10.257 1.92879 10.8928 1.23708 11.6792 0.749966C12.6871 0.125194 13.8893 -0.120939 15.0661 0.0561945C16.3153 0.246372 17.4484 0.90204 18.2548 1.90511C19.1429 3.00979 19.6132 4.49448 19.6152 6.2023C19.7278 9.83456 15.4856 13.4905 10.3497 17.5505C10.1956 17.6734 10.003 17.7407 9.80871 17.7407ZM5.30142 1.22781C5.11056 1.22781 4.92176 1.24257 4.73638 1.26969C3.12022 1.51411 1.23354 2.95555 1.23354 6.21294C1.23354 6.22015 1.23354 6.22736 1.23354 6.23285C1.13193 9.24446 5.20496 12.7645 9.80871 16.4132C14.4142 12.7645 18.4855 9.24446 18.3856 6.23285C18.3856 6.22565 18.3856 6.21844 18.3856 6.21294C18.3856 2.95555 16.4989 1.51411 14.8824 1.26969C13.2573 1.02322 11.2869 1.83268 10.5495 4.19582C10.3734 4.76258 10.0102 4.84771 9.80871 4.84771C9.6072 4.84771 9.24573 4.76258 9.06756 4.19582C8.41567 2.10078 6.79401 1.22781 5.30142 1.22781Z" fill="#FE8235"/>
</svg>
