<svg width="22" height="22" viewBox="0 0 22 22" fill="none" xmlns="http://www.w3.org/2000/svg">
<path fill-rule="evenodd" clip-rule="evenodd" d="M15.6397 0.799857C16.1522 0.287698 16.8472 0 17.5718 0C18.2964 0 18.9913 0.287698 19.5039 0.799857L21.2001 2.49601C21.7123 3.00853 22 3.70344 22 4.428C22 5.15256 21.7123 5.84747 21.2001 6.35999L7.75196 19.8074C7.42396 20.1354 7.01786 20.3759 6.57115 20.5024L1.49334 21.9549C1.29236 22.0123 1.07967 22.015 0.877332 21.9625C0.674996 21.91 0.490388 21.8043 0.342661 21.6565C0.194933 21.5086 0.0894671 21.3239 0.0372047 21.1215C-0.0150576 20.9191 -0.0122126 20.7064 0.0454444 20.5055L1.49647 15.4296C1.62366 14.9822 1.86289 14.5748 2.19152 14.2457L15.6397 0.798295V0.799857ZM17.8482 2.4554C17.8119 2.41904 17.7689 2.39019 17.7214 2.37051C17.674 2.35082 17.6231 2.34069 17.5718 2.34069C17.5204 2.34069 17.4695 2.35082 17.4221 2.37051C17.3747 2.39019 17.3316 2.41904 17.2953 2.4554L15.3242 4.428L17.5718 6.67704L19.5445 4.70444C19.5808 4.66817 19.6097 4.62508 19.6294 4.57765C19.649 4.53021 19.6592 4.47936 19.6592 4.428C19.6592 4.37664 19.649 4.32579 19.6294 4.27835C19.6097 4.23091 19.5808 4.18782 19.5445 4.15155L17.8482 2.4554ZM15.9146 8.33258L13.667 6.08354L3.84872 15.9028C3.80159 15.9496 3.76719 16.0077 3.74876 16.0715L2.87721 19.1217L5.92764 18.2502C5.99148 18.2319 6.04956 18.1975 6.09632 18.1503L15.9146 8.33258Z" fill="white"/>
</svg>
