<svg width="51" height="51" viewBox="0 0 51 51" fill="none" xmlns="http://www.w3.org/2000/svg">
<path d="M32.7207 15.5513C35.1093 15.5515 37.0566 17.4995 37.0566 19.8882C37.0564 22.2767 35.1092 24.2239 32.7207 24.2241C30.332 24.2241 28.384 22.2768 28.3838 19.8882C28.3838 17.4994 30.3319 15.5513 32.7207 15.5513Z" stroke="#9E9C9C" stroke-width="2.36923"/>
<path d="M22.2139 13.4497C25.1824 13.4497 27.6013 15.868 27.6016 18.8364C27.6016 21.8051 25.1825 24.2241 22.2139 24.2241C19.2454 24.2239 16.8271 21.8049 16.8271 18.8364C16.8274 15.8681 19.2456 13.45 22.2139 13.4497Z" stroke="#9E9C9C" stroke-width="2.36923"/>
<path d="M31.6694 23.9565C33.9821 23.9565 36.1142 24.6114 37.6626 25.7007C39.201 26.7829 40.2084 28.3132 40.2085 30.0317V33.52C40.2085 34.769 39.1958 35.7817 37.9468 35.7817H23.1304V30.0317C23.1305 28.3132 24.1379 26.7829 25.6763 25.7007C27.2247 24.6114 29.3568 23.9566 31.6694 23.9565Z" stroke="#9E9C9C" stroke-width="2.36923"/>
<path d="M22.2144 25.0071C25.3735 25.0071 28.2722 25.7028 30.3706 26.8508C32.4178 27.9709 33.9048 29.6265 33.9048 31.6262V35.6213C33.9048 36.8702 32.8929 37.8829 31.644 37.8831H12.7847C11.5357 37.8831 10.523 36.8703 10.5229 35.6213V31.6262C10.5229 29.6266 12.0101 27.9709 14.0571 26.8508C16.1556 25.7027 19.0551 25.0071 22.2144 25.0071Z" fill="white" stroke="#9E9C9C" stroke-width="2.36923"/>
</svg>
