<svg width="76" height="16" viewBox="0 0 76 16" fill="none" xmlns="http://www.w3.org/2000/svg">
<path d="M16.728 6.95802L13.2694 10.2757L14.0854 14.96C14.1443 15.294 14.0041 15.631 13.7259 15.8298C13.569 15.9427 13.382 15.9994 13.1952 15.9994C13.0507 15.9994 12.9074 15.9657 12.7747 15.8974L8.50004 13.6857L4.22621 15.8974C3.92126 16.0557 3.55252 16.029 3.27375 15.8298C2.99558 15.6306 2.85659 15.294 2.91447 14.96L3.73147 10.2757L0.272875 6.95802C0.0263944 6.72165 -0.0619999 6.36797 0.0443095 6.04643C0.150816 5.72469 0.433323 5.49026 0.77371 5.44128L5.55291 4.75793L7.68992 0.495577C7.84151 0.191649 8.15572 0 8.49965 0C8.84377 0 9.15798 0.191649 9.31035 0.495577L11.4474 4.75793L16.2264 5.44128C16.5668 5.49026 16.8493 5.72469 16.9558 6.04643C17.0623 6.36797 16.9727 6.72165 16.7272 6.95802H16.728Z" fill="#FE8235"/>
<path d="M35.728 6.95802L32.2694 10.2757L33.0854 14.96C33.1443 15.294 33.0041 15.631 32.7259 15.8298C32.569 15.9427 32.382 15.9994 32.1952 15.9994C32.0507 15.9994 31.9074 15.9657 31.7747 15.8974L27.5 13.6857L23.2262 15.8974C22.9213 16.0557 22.5525 16.029 22.2738 15.8298C21.9956 15.6306 21.8566 15.294 21.9145 14.96L22.7315 10.2757L19.2729 6.95802C19.0264 6.72165 18.938 6.36797 19.0443 6.04643C19.1508 5.72469 19.4333 5.49026 19.7737 5.44128L24.5529 4.75793L26.6899 0.495577C26.8415 0.191649 27.1557 0 27.4996 0C27.8438 0 28.158 0.191649 28.3104 0.495577L30.4474 4.75793L35.2264 5.44128C35.5668 5.49026 35.8493 5.72469 35.9558 6.04643C36.0623 6.36797 35.9727 6.72165 35.7272 6.95802H35.728Z" fill="#FE8235"/>
<path d="M56.728 6.95802L53.2694 10.2757L54.0854 14.96C54.1443 15.294 54.0041 15.631 53.7259 15.8298C53.569 15.9427 53.382 15.9994 53.1952 15.9994C53.0507 15.9994 52.9074 15.9657 52.7747 15.8974L48.5 13.6857L44.2262 15.8974C43.9213 16.0557 43.5525 16.029 43.2738 15.8298C42.9956 15.6306 42.8566 15.294 42.9145 14.96L43.7315 10.2757L40.2729 6.95802C40.0264 6.72165 39.938 6.36797 40.0443 6.04643C40.1508 5.72469 40.4333 5.49026 40.7737 5.44128L45.5529 4.75793L47.6899 0.495577C47.8415 0.191649 48.1557 0 48.4996 0C48.8438 0 49.158 0.191649 49.3104 0.495577L51.4474 4.75793L56.2264 5.44128C56.5668 5.49026 56.8493 5.72469 56.9558 6.04643C57.0623 6.36797 56.9727 6.72165 56.7272 6.95802H56.728Z" fill="#FE8235"/>
<path d="M75.728 6.95802L72.2694 10.2757L73.0854 14.96C73.1443 15.294 73.0041 15.631 72.7259 15.8298C72.569 15.9427 72.382 15.9994 72.1952 15.9994C72.0507 15.9994 71.9074 15.9657 71.7747 15.8974L67.5 13.6857L63.2262 15.8974C62.9213 16.0557 62.5525 16.029 62.2738 15.8298C61.9956 15.6306 61.8566 15.294 61.9145 14.96L62.7315 10.2757L59.2729 6.95802C59.0264 6.72165 58.938 6.36797 59.0443 6.04643C59.1508 5.72469 59.4333 5.49026 59.7737 5.44128L64.5529 4.75793L66.6899 0.495577C66.8415 0.191649 67.1557 0 67.4996 0C67.8438 0 68.158 0.191649 68.3104 0.495577L70.4474 4.75793L75.2264 5.44128C75.5668 5.49026 75.8493 5.72469 75.9558 6.04643C76.0623 6.36797 75.9727 6.72165 75.7272 6.95802H75.728Z" fill="#FE8235"/>
</svg>
