<svg width="28" height="28" viewBox="0 0 28 28" fill="none" xmlns="http://www.w3.org/2000/svg">
<path fill-rule="evenodd" clip-rule="evenodd" d="M27.049 10.3425L18.9348 2.18848C16.0165 -0.729492 11.3005 -0.729492 8.38231 2.18848L0.268035 10.3425C0.00665136 10.6033 -0.0718704 10.997 0.0693299 11.3388C0.21053 11.6806 0.543414 11.9027 0.911715 11.9008H2.28685V20.7899C2.29222 24.3925 5.19713 27.3117 8.78217 27.3171H10.1768C10.6793 27.3117 11.0838 26.9008 11.0838 26.3958V18.9082H16.2333V26.3958C16.2332 26.9008 16.6378 27.3117 17.1403 27.3171H18.5349C22.1199 27.3117 25.0248 24.3925 25.0302 20.7899V11.9008H26.4053C26.7737 11.9027 27.1065 11.6806 27.2477 11.3388C27.3889 10.997 27.3104 10.6033 27.049 10.3425ZM9.59816 3.52382C10.6745 2.51689 12.1353 1.95109 13.6585 1.95109C15.1818 1.95109 16.6426 2.51689 17.7189 3.52382L24.3902 9.75596H2.92683L9.59816 3.52382ZM18.6412 25.3655C21.2752 25.3601 23.4091 23.2499 23.4146 20.6451V11.707H3.90244V20.6451C3.90792 23.2499 6.04184 25.3601 8.67585 25.3655H9.16415V17.8267C9.16962 17.319 9.58741 16.9102 10.1009 16.9102H17.2162C17.7297 16.9102 18.1475 17.319 18.1529 17.8267V25.3655H18.6412Z" fill="#371B34"/>
<path d="M27.049 10.3425L18.9348 2.18848C16.0165 -0.729492 11.3005 -0.729492 8.38231 2.18848L0.268035 10.3425C0.00665136 10.6033 -0.0718704 10.997 0.0693299 11.3388C0.21053 11.6806 0.543414 11.9027 0.911715 11.9008H2.28685V20.7899C2.29222 24.3925 5.19713 27.3117 8.78217 27.3171H10.1768C10.6793 27.3117 11.0838 26.9008 11.0838 26.3958V18.9082H16.2333V26.3958C16.2332 26.9008 16.6378 27.3117 17.1403 27.3171H18.5349C22.1199 27.3117 25.0248 24.3925 25.0302 20.7899V11.9008H26.4053C26.7737 11.9027 27.1065 11.6806 27.2477 11.3388C27.3889 10.997 27.3104 10.6033 27.049 10.3425Z" fill="#FE8235"/>
</svg>
