<svg width="28" height="31" viewBox="0 0 28 31" fill="none" xmlns="http://www.w3.org/2000/svg">
<path d="M6.22222 13.95H9.33333V17.05H6.22222V13.95ZM28 6.2V27.9C28 29.605 26.6 31 24.8889 31H3.11111C2.28599 31 1.49467 30.6734 0.911223 30.092C0.327777 29.5107 0 28.7222 0 27.9L0.0155555 6.2C0.0155555 4.495 1.38444 3.1 3.11111 3.1H4.66667V0H7.77778V3.1H20.2222V0H23.3333V3.1H24.8889C26.6 3.1 28 4.495 28 6.2ZM3.11111 9.3H24.8889V6.2H3.11111V9.3ZM24.8889 27.9V12.4H3.11111V27.9H24.8889ZM18.6667 17.05H21.7778V13.95H18.6667V17.05ZM12.4444 17.05H15.5556V13.95H12.4444V17.05Z" fill="#9E9C9C"/>
</svg>
