<svg width="44" height="44" viewBox="0 0 44 44" fill="none" xmlns="http://www.w3.org/2000/svg">
<path d="M18.5122 37.2475C18.5122 38.4998 18.0147 39.7007 17.1293 40.5861C16.2438 41.4716 15.0429 41.969 13.7907 41.969C12.5385 41.969 11.3375 41.4716 10.4521 40.5861C9.56662 39.7007 9.06918 38.4998 9.06918 37.2475M14.9254 15.2186L12.6182 15.2139C7.35528 15.2013 2.78644 19.4774 2.75024 24.6569V30.6217C2.75024 31.865 2.59286 33.0785 1.91454 34.1125L1.46285 34.8018C0.775086 35.8468 1.51479 37.2475 2.75024 37.2475H24.8311C26.0666 37.2475 26.8047 35.8468 26.1185 34.8018L25.6668 34.1125C24.9901 33.0785 24.8311 31.8635 24.8311 30.6201V24.6585C24.7681 19.4774 20.1883 15.2312 14.9254 15.2186V15.2186Z" stroke="#9E9C9C" stroke-width="2.4" stroke-linecap="round" stroke-linejoin="round"/>
<path d="M13.7907 10.4924C14.6255 10.4924 15.4262 10.8241 16.0165 11.4144C16.6068 12.0047 16.9384 12.8053 16.9384 13.6401V15.2139H10.6431V13.6401C10.6431 12.8053 10.9747 12.0047 11.565 11.4144C12.1553 10.8241 12.9559 10.4924 13.7907 10.4924Z" stroke="#9E9C9C" stroke-width="2.4" stroke-linecap="round" stroke-linejoin="round"/>
<circle cx="30.1844" cy="13.771" r="13.771" fill="#FE8235"/>
<path d="M31.9689 12.2074C32.3209 12.2194 32.6089 12.3194 32.8329 12.5074C33.0609 12.6914 33.2289 12.9374 33.3369 13.2454C33.4489 13.5494 33.5049 13.8874 33.5049 14.2594C33.5049 14.7674 33.4089 15.2294 33.2169 15.6454C33.0249 16.0574 32.7289 16.3854 32.3289 16.6294C31.9329 16.8734 31.4249 16.9954 30.8049 16.9954C30.2889 16.9954 29.8529 16.9274 29.4969 16.7914C29.1409 16.6514 28.8549 16.4554 28.6389 16.2034C28.4269 15.9474 28.2709 15.6434 28.1709 15.2914C28.0749 14.9394 28.0269 14.5514 28.0269 14.1274C28.0269 14.1234 28.0269 14.1194 28.0269 14.1154C28.0269 14.1114 28.0269 14.1074 28.0269 14.1034H29.3349C29.3349 14.1074 29.3349 14.1114 29.3349 14.1154C29.3349 14.1194 29.3349 14.1234 29.3349 14.1274C29.3349 14.5954 29.3929 14.9594 29.5089 15.2194C29.6289 15.4794 29.7989 15.6614 30.0189 15.7654C30.2429 15.8654 30.5109 15.9154 30.8229 15.9154C31.2429 15.9154 31.5749 15.7794 31.8189 15.5074C32.0669 15.2314 32.1909 14.8054 32.1909 14.2294C32.1909 14.0214 32.1689 13.8274 32.1249 13.6474C32.0849 13.4674 32.0109 13.3114 31.9029 13.1794C31.7949 13.0434 31.6449 12.9374 31.4529 12.8614C31.2649 12.7814 31.0229 12.7414 30.7269 12.7414H30.4029V11.7514H30.7269C31.0149 11.7514 31.2529 11.7134 31.4409 11.6374C31.6329 11.5574 31.7829 11.4514 31.8909 11.3194C31.9989 11.1834 32.0749 11.0334 32.1189 10.8694C32.1669 10.7014 32.1909 10.5294 32.1909 10.3534C32.1909 9.87338 32.0689 9.52738 31.8249 9.31538C31.5809 9.10338 31.2529 8.99738 30.8409 8.99738C30.3889 8.99738 30.0249 9.11738 29.7489 9.35738C29.4729 9.59738 29.3349 10.0334 29.3349 10.6654H28.0269C28.0269 10.2694 28.0809 9.90338 28.1889 9.56738C28.3009 9.23138 28.4689 8.93938 28.6929 8.69138C28.9209 8.43938 29.2109 8.24538 29.5629 8.10938C29.9149 7.97338 30.3329 7.90538 30.8169 7.90538C31.4329 7.90538 31.9389 8.01338 32.3349 8.22938C32.7309 8.44538 33.0249 8.73338 33.2169 9.09338C33.4089 9.45338 33.5049 9.85138 33.5049 10.2874C33.5049 10.6194 33.4489 10.9294 33.3369 11.2174C33.2289 11.5014 33.0609 11.7334 32.8329 11.9134C32.6089 12.0934 32.3209 12.1914 31.9689 12.2074Z" fill="#FBFBFB"/>
</svg>
