<svg width="56" height="55" viewBox="0 0 56 55" fill="none" xmlns="http://www.w3.org/2000/svg">
<g clip-path="url(#clip0_131_57)">
<rect width="56" height="55" rx="27.5" fill="white"/>
<circle cx="28" cy="28" r="26" stroke="#FDEADA" stroke-width="4"/>
<path d="M35.6851 16.4187C37.8893 16.4188 39.688 18.2174 39.688 20.4216C39.6879 22.6258 37.8892 24.4245 35.6851 24.4246C33.4808 24.4246 31.6822 22.6258 31.6821 20.4216C31.6821 18.2174 33.4808 16.4187 35.6851 16.4187Z" stroke="#FE8235" stroke-width="1.5"/>
<path d="M24.8428 14.25C27.6454 14.25 29.9296 16.5343 29.9297 19.3369C29.9297 22.1396 27.6454 24.4238 24.8428 24.4238C22.0402 24.4237 19.7559 22.1395 19.7559 19.3369C19.7559 16.5344 22.0402 14.2501 24.8428 14.25Z" stroke="#FE8235" stroke-width="1.5"/>
<path d="M34.6011 25.0928C36.9036 25.0928 39.0059 25.7457 40.5142 26.8066C42.0161 27.8633 42.9409 29.3139 42.9409 30.8906V34.5244C42.9408 35.5333 42.1227 36.3516 41.1138 36.3516H26.2612V30.8906C26.2612 29.3139 27.186 27.8633 28.688 26.8066C30.1962 25.7457 32.2986 25.0928 34.6011 25.0928Z" stroke="#FE8235" stroke-width="1.5"/>
<path d="M24.8428 26.177C28.0405 26.177 30.9505 26.8823 33.0332 28.0217C35.0834 29.1435 36.4355 30.7265 36.4355 32.5354V36.6926C36.4355 37.7016 35.6174 38.5198 34.6084 38.5198H15.0771C14.0682 38.5198 13.25 37.7016 13.25 36.6926V32.5354C13.25 30.7266 14.6014 29.1435 16.6514 28.0217H16.6523C18.735 26.8823 21.6451 26.177 24.8428 26.177Z" fill="white" stroke="#FE8235" stroke-width="1.5"/>
</g>
<defs>
<clipPath id="clip0_131_57">
<rect width="56" height="55" rx="27.5" fill="white"/>
</clipPath>
</defs>
</svg>
