<svg width="26" height="26" viewBox="0 0 26 26" fill="none" xmlns="http://www.w3.org/2000/svg">
<path d="M11.629 0C12.0962 0.0668789 12.5669 0.11573 13.0302 0.203734C15.2813 0.631312 17.2082 1.6767 18.8121 3.30601C20.271 4.78821 21.2356 6.54926 21.6497 8.59153C22.1702 11.1587 21.8111 13.6069 20.5245 15.8921C20.1124 16.6242 19.5913 17.295 19.1201 17.9938C19.0756 18.0105 19.0312 18.0272 18.9867 18.0439C19.0703 18.0871 19.1709 18.1129 19.2351 18.1759C21.3662 20.2673 23.4955 22.3607 25.6186 24.4602C25.7703 24.6101 25.874 24.8085 26 24.9844V25.3398C25.8893 25.6692 25.6627 25.8827 25.3398 26H24.9844C24.7798 25.8559 24.5508 25.7368 24.3742 25.564C22.2452 23.4801 20.124 21.3883 18.0005 19.2988C17.9469 19.2461 17.8906 19.1962 17.8254 19.1355C17.752 19.1856 17.6814 19.2292 17.6158 19.2793C16.2043 20.3551 14.6219 21.0567 12.8771 21.354C10.2694 21.7983 7.78791 21.4089 5.4826 20.0817C3.08415 18.701 1.42035 16.7024 0.530106 14.0748C0.266094 13.2955 0.10532 12.4922 0.0439258 11.6701C0.0391016 11.6049 0.0151328 11.5411 0 11.4766V10.0547C0.0155391 9.98156 0.0349883 9.90905 0.045957 9.83526C0.10923 9.40936 0.147672 8.97828 0.236387 8.55781C0.660969 6.54565 1.60281 4.80411 3.03875 3.33567C4.6509 1.68711 6.58912 0.631109 8.8593 0.202008C9.30526 0.11766 9.75762 0.0664727 10.2071 0H11.629ZM1.67903 10.7104C1.69904 11.0874 1.69797 11.4021 1.73499 11.7122C1.9694 13.6761 2.7167 15.4174 4.08129 16.8584C6.46902 19.3795 9.41891 20.3272 12.7993 19.6696C15.7629 19.0931 17.9776 17.3877 19.2904 14.6452C20.6136 11.8809 20.5331 9.0869 19.0515 6.4158C17.5327 3.67788 15.1368 2.11737 12.0296 1.73525C9.57613 1.43345 7.31971 2.03049 5.34234 3.52894C2.95059 5.34148 1.76094 7.78304 1.67903 10.7104Z" fill="#FE8235"/>
</svg>
