<svg width="23" height="23" viewBox="0 0 23 23" fill="none" xmlns="http://www.w3.org/2000/svg">
<path d="M22.6428 10.634L18.1579 6.16367C18.1029 6.10871 18.0425 6.05958 17.978 6.01627C17.913 5.97297 17.8443 5.93674 17.7723 5.90676C17.7003 5.8772 17.6257 5.85471 17.5491 5.83931C17.4725 5.82432 17.3951 5.81641 17.3172 5.81641C17.2389 5.81641 17.1619 5.82432 17.0853 5.83931C17.0086 5.85471 16.9341 5.8772 16.8621 5.90676C16.79 5.93674 16.7213 5.97297 16.6564 6.01627C16.5914 6.05958 16.5315 6.10871 16.4761 6.16367C16.4211 6.21905 16.3716 6.2786 16.3283 6.34355C16.285 6.40809 16.2483 6.47638 16.2183 6.54842C16.1884 6.62045 16.1659 6.69457 16.1509 6.77077C16.1355 6.84697 16.128 6.924 16.128 7.00186C16.128 7.07973 16.1355 7.15676 16.1509 7.23338C16.1659 7.30958 16.1884 7.38369 16.2183 7.45573C16.2483 7.52735 16.285 7.59563 16.3283 7.66059C16.3716 7.72513 16.4211 7.78509 16.4761 7.84005L18.9307 10.2868H5.94604C5.86818 10.2868 5.79073 10.2947 5.71411 10.3097C5.6375 10.3251 5.56338 10.3475 5.49093 10.3771C5.41889 10.4071 5.35061 10.4433 5.28565 10.4866C5.22069 10.5299 5.16073 10.5791 5.10535 10.634C5.04997 10.689 5.00084 10.7489 4.95754 10.8139C4.91423 10.8784 4.87759 10.9467 4.84761 11.0188C4.81763 11.0904 4.79514 11.1645 4.77974 11.2411C4.76475 11.3173 4.75684 11.3943 4.75684 11.4722C4.75684 11.5501 4.76475 11.6271 4.77974 11.7037C4.79514 11.7799 4.81763 11.854 4.84761 11.9261C4.87759 11.9977 4.91423 12.066 4.95754 12.1309C5.00084 12.1955 5.04997 12.2554 5.10535 12.3104C5.16073 12.3654 5.22069 12.4145 5.28565 12.4578C5.35061 12.5011 5.41889 12.5377 5.49093 12.5673C5.56338 12.5973 5.6375 12.6198 5.71411 12.6348C5.79073 12.6502 5.86818 12.6577 5.94604 12.6577H18.9307L16.4761 15.1044C16.4211 15.1593 16.3716 15.2193 16.3283 15.2842C16.285 15.3488 16.2483 15.4171 16.2183 15.4891C16.1888 15.5607 16.1659 15.6348 16.1509 15.7115C16.1355 15.7877 16.128 15.8647 16.128 15.9426C16.128 16.0204 16.1355 16.0975 16.1509 16.1741C16.1659 16.2503 16.1888 16.3244 16.2183 16.3964C16.2483 16.468 16.285 16.5363 16.3283 16.6013C16.3716 16.6658 16.4211 16.7258 16.4761 16.7807C16.5315 16.8357 16.5914 16.8848 16.6564 16.9281C16.7213 16.9715 16.79 17.0081 16.8621 17.0377C16.9341 17.0676 17.0086 17.0901 17.0853 17.1051C17.1619 17.1205 17.2389 17.128 17.3172 17.128C17.3951 17.128 17.4725 17.1205 17.5491 17.1051C17.6257 17.0901 17.7003 17.0676 17.7723 17.0377C17.8443 17.0081 17.913 16.9715 17.978 16.9281C18.0425 16.8848 18.1029 16.8357 18.1579 16.7807L22.6428 12.3104C22.6978 12.2554 22.7473 12.1955 22.7906 12.1309C22.8339 12.066 22.8706 11.9977 22.9005 11.9261C22.9305 11.854 22.953 11.7799 22.968 11.7037C22.9834 11.6271 22.9909 11.5501 22.9909 11.4722C22.9909 11.3943 22.9834 11.3173 22.968 11.2411C22.953 11.1645 22.9305 11.0904 22.9005 11.0188C22.8706 10.9467 22.8339 10.8784 22.7906 10.8139C22.7473 10.7489 22.6978 10.689 22.6428 10.634Z" fill="#FE8235"/>
<mask id="mask0_151_47" style="mask-type:luminance" maskUnits="userSpaceOnUse" x="0" y="0" width="16" height="23">
<path d="M0 0H15.1136V22.9372H0V0Z" fill="white"/>
</mask>
<g mask="url(#mask0_151_47)">
<path d="M13.8736 18.1897C13.7954 18.1897 13.7183 18.1972 13.6417 18.2126C13.5651 18.2276 13.4906 18.2501 13.4185 18.28C13.3465 18.3096 13.2778 18.3462 13.2128 18.3896C13.1479 18.4329 13.0879 18.482 13.0325 18.537C12.9776 18.5919 12.928 18.6519 12.8847 18.7164C12.8414 18.7814 12.8048 18.8497 12.7748 18.9213C12.7448 18.9933 12.7223 19.0674 12.7073 19.1436C12.6919 19.2202 12.6844 19.2973 12.6844 19.3751V20.5606H2.37841V2.38483H12.6844V3.57029C12.6844 3.64815 12.6919 3.72519 12.7073 3.80138C12.7223 3.87758 12.7448 3.9517 12.7748 4.02374C12.8048 4.09577 12.8414 4.16406 12.8847 4.2286C12.928 4.29356 12.9776 4.3531 13.0325 4.40848C13.0879 4.46344 13.1479 4.51258 13.2128 4.55588C13.2778 4.59877 13.3465 4.63541 13.4185 4.66539C13.4906 4.69495 13.5651 4.71744 13.6417 4.73285C13.7183 4.74784 13.7954 4.75533 13.8736 4.75533C13.9515 4.75533 14.029 4.74784 14.1056 4.73285C14.1822 4.71744 14.2563 4.69495 14.3288 4.66539C14.4008 4.63541 14.4695 4.59877 14.534 4.55588C14.599 4.51258 14.6594 4.46344 14.7143 4.40848C14.7697 4.3531 14.8188 4.29356 14.8622 4.2286C14.9059 4.16406 14.9425 4.09577 14.9721 4.02374C15.0021 3.9517 15.0245 3.87758 15.04 3.80138C15.0549 3.72519 15.0629 3.64815 15.0629 3.57029V1.98968C15.0629 1.92514 15.0595 1.8606 15.0533 1.79606C15.0466 1.73152 15.0375 1.66781 15.0245 1.6041C15.0121 1.54081 14.9962 1.47794 14.9775 1.41631C14.9583 1.35427 14.9367 1.29348 14.9117 1.23352C14.8871 1.17397 14.8592 1.11526 14.8288 1.05822C14.798 1.00117 14.7647 0.945793 14.7289 0.892079C14.6927 0.838365 14.654 0.786317 14.6127 0.73635C14.5715 0.686383 14.5282 0.638499 14.4824 0.592696C14.4362 0.546893 14.3883 0.503589 14.3379 0.462366C14.288 0.42156 14.2359 0.382836 14.1818 0.347027C14.1281 0.311217 14.0723 0.277906 14.0152 0.24751C13.9578 0.216697 13.899 0.189216 13.8391 0.164232C13.7791 0.139665 13.7183 0.118013 13.6563 0.0992756C13.5938 0.0801217 13.531 0.0647153 13.4673 0.0518074C13.404 0.0393157 13.3398 0.0297388 13.2749 0.0234929C13.2103 0.0172472 13.1458 0.013916 13.0808 0.013916H1.98201C1.91705 0.013916 1.8521 0.0172472 1.78756 0.0234929C1.72302 0.0297388 1.65889 0.0393157 1.59518 0.0518074C1.53148 0.0647153 1.4686 0.0801217 1.40656 0.0992756C1.34452 0.118013 1.28331 0.139665 1.22335 0.164232C1.16339 0.189216 1.10468 0.216697 1.04763 0.24751C0.990172 0.277906 0.934792 0.311217 0.880662 0.347027C0.826947 0.382836 0.774899 0.42156 0.724516 0.462366C0.674549 0.503589 0.626248 0.546893 0.580445 0.592696C0.534643 0.638499 0.490922 0.686383 0.4497 0.73635C0.408477 0.786317 0.370169 0.838365 0.333944 0.892079C0.297718 0.945793 0.264407 1.00117 0.23401 1.05822C0.203198 1.11526 0.175716 1.17397 0.150733 1.23352C0.125749 1.29348 0.104097 1.35427 0.0853596 1.41631C0.0666222 1.47794 0.0507994 1.54081 0.0378913 1.6041C0.0253997 1.66781 0.0158227 1.73152 0.00957693 1.79606C0.00291472 1.8606 0 1.92514 0 1.98968V20.9553C0 21.0203 0.00291472 21.0848 0.00957693 21.1494C0.0158227 21.2135 0.0253997 21.2776 0.0378913 21.3409C0.0507994 21.4046 0.0662058 21.4671 0.0853596 21.5291C0.104097 21.5907 0.125749 21.652 0.150733 21.7115C0.175716 21.7715 0.203198 21.8298 0.23401 21.8868C0.264407 21.9438 0.297718 21.9992 0.333944 22.0529C0.370169 22.1071 0.408477 22.1587 0.4497 22.2087C0.490922 22.2591 0.534643 22.3069 0.580445 22.3523C0.626248 22.3981 0.674549 22.4418 0.724516 22.4827C0.774899 22.5239 0.826947 22.5622 0.880662 22.5984C0.934792 22.6342 0.990172 22.6675 1.04763 22.6979C1.10468 22.7283 1.16339 22.7562 1.22335 22.7808C1.28331 22.8054 1.34452 22.8274 1.40656 22.8462C1.4686 22.8649 1.53148 22.8807 1.59518 22.8932C1.65889 22.9057 1.72302 22.9153 1.78756 22.9215C1.8521 22.9282 1.91705 22.9311 1.98201 22.9311H13.0808C13.1458 22.9311 13.2103 22.9282 13.2749 22.9215C13.3398 22.9153 13.404 22.9057 13.4673 22.8932C13.531 22.8807 13.5938 22.8649 13.6563 22.8462C13.7183 22.8274 13.7791 22.8054 13.8391 22.7808C13.899 22.7562 13.9578 22.7283 14.0152 22.6979C14.0723 22.6675 14.1281 22.6342 14.1818 22.5984C14.2359 22.5622 14.288 22.5239 14.3379 22.4827C14.3883 22.4418 14.4362 22.3981 14.4824 22.3523C14.5282 22.3069 14.5715 22.2591 14.6127 22.2087C14.654 22.1587 14.6927 22.1071 14.7289 22.0529C14.7647 21.9992 14.798 21.9438 14.8288 21.8868C14.8592 21.8298 14.8871 21.7715 14.9117 21.7115C14.9367 21.652 14.9583 21.5907 14.9775 21.5291C14.9962 21.4671 15.0121 21.4046 15.0245 21.3409C15.0375 21.2776 15.0466 21.2135 15.0533 21.1494C15.0595 21.0848 15.0629 21.0203 15.0629 20.9553V19.3751C15.0629 19.2973 15.0549 19.2202 15.04 19.1436C15.0245 19.0674 15.0021 18.9933 14.9721 18.9213C14.9425 18.8497 14.9059 18.7814 14.8622 18.7164C14.8188 18.6519 14.7697 18.5919 14.7143 18.537C14.6594 18.482 14.599 18.4329 14.534 18.3896C14.4695 18.3462 14.4008 18.3096 14.3288 18.28C14.2563 18.2501 14.1822 18.2276 14.1056 18.2126C14.029 18.1972 13.9515 18.1897 13.8736 18.1897Z" fill="#FE8235"/>
</g>
</svg>
