<svg width="23" height="23" viewBox="0 0 23 23" fill="none" xmlns="http://www.w3.org/2000/svg">
<path d="M7.60887 20.6482C7.33938 20.3786 7.18799 20.0131 7.18799 19.6319C7.18799 19.2507 7.33938 18.8852 7.60887 18.6156L14.7245 11.5L7.60887 4.38434C7.34702 4.11322 7.20212 3.7501 7.2054 3.3732C7.20867 2.99629 7.35986 2.63575 7.62638 2.36922C7.8929 2.1027 8.25345 1.95152 8.63035 1.94824C9.00726 1.94497 9.37038 2.08986 9.64149 2.35171L17.7734 10.4837C18.0429 10.7532 18.1943 11.1188 18.1943 11.5C18.1943 11.8811 18.0429 12.2467 17.7734 12.5163L9.64149 20.6482C9.37192 20.9177 9.00635 21.0691 8.62518 21.0691C8.24401 21.0691 7.87844 20.9177 7.60887 20.6482Z" fill="#FE8235"/>
</svg>
