<svg width="23" height="23" viewBox="0 0 23 23" fill="none" xmlns="http://www.w3.org/2000/svg">
<path d="M15.3935 2.35324C15.663 2.62283 15.8144 2.98842 15.8143 3.36959C15.8143 3.75076 15.6629 4.11632 15.3933 4.38586L8.27702 11.5008L15.392 18.6171C15.6538 18.8883 15.7986 19.2514 15.7953 19.6283C15.792 20.0052 15.6408 20.3657 15.3743 20.6322C15.1077 20.8987 14.7471 21.0499 14.3702 21.0531C13.9933 21.0563 13.6302 20.9114 13.3591 20.6495L5.22799 12.5168C4.95852 12.2472 4.80717 11.8816 4.80721 11.5005C4.80724 11.1193 4.95867 10.7537 5.22818 10.4842L13.3609 2.35304C13.6305 2.08358 13.9961 1.93222 14.3773 1.93226C14.7584 1.93229 15.124 2.08372 15.3935 2.35324Z" fill="#FE8235"/>
</svg>
