<svg width="33" height="27" viewBox="0 0 33 27" fill="none" xmlns="http://www.w3.org/2000/svg">
<path d="M23.3823 3.28613C25.771 3.28634 27.7183 5.23436 27.7183 7.62305C27.7181 10.0116 25.7708 11.9588 23.3823 11.959C20.9936 11.959 19.0456 10.0117 19.0454 7.62305C19.0454 5.23424 20.9935 3.28613 23.3823 3.28613Z" stroke="#FE8235" stroke-width="2.36923"/>
<path d="M12.8755 1.18457C15.844 1.18457 18.2629 3.60285 18.2632 6.57129C18.2632 9.53994 15.8441 11.959 12.8755 11.959C9.90707 11.9587 7.48877 9.53979 7.48877 6.57129C7.48903 3.60301 9.90723 1.18483 12.8755 1.18457Z" stroke="#FE8235" stroke-width="2.36923"/>
<path d="M22.3311 11.6914C24.6437 11.6914 26.7758 12.3463 28.3242 13.4355C29.8626 14.5178 30.87 16.0481 30.8701 17.7666V21.2549C30.8701 22.5039 29.8574 23.5166 28.6084 23.5166H13.792V17.7666C13.7921 16.0481 14.7995 14.5178 16.3379 13.4355C17.8863 12.3463 20.0184 11.6914 22.3311 11.6914Z" stroke="#FE8235" stroke-width="2.36923"/>
<path d="M12.876 12.7419C16.0351 12.742 18.9339 13.4376 21.0322 14.5857C23.0794 15.7058 24.5664 17.3614 24.5664 19.3611V23.3562C24.5664 24.6051 23.5545 25.6177 22.3057 25.6179H3.44629C2.19729 25.6179 1.1846 24.6052 1.18457 23.3562V19.3611C1.18457 17.3615 2.67174 15.7058 4.71875 14.5857C6.81718 13.4376 9.71668 12.7419 12.876 12.7419Z" fill="white" stroke="#FE8235" stroke-width="2.36923"/>
</svg>
