<svg width="51" height="51" viewBox="0 0 51 51" fill="none" xmlns="http://www.w3.org/2000/svg">
<path d="M30.2437 22.4394L38.0171 18.5535C38.2773 18.4235 38.5664 18.3621 38.8571 18.3752C39.1477 18.3883 39.4301 18.4754 39.6776 18.6283C39.9251 18.7812 40.1294 18.9948 40.2712 19.2489C40.4129 19.5029 40.4874 19.789 40.4876 20.0799V31.6282C40.4874 31.9191 40.4129 32.2051 40.2712 32.4592C40.1294 32.7132 39.9251 32.9268 39.6776 33.0797C39.4301 33.2326 39.1477 33.3197 38.8571 33.3328C38.5664 33.3459 38.2773 33.2845 38.0171 33.1545L30.2437 29.2686V22.4394ZM13.1705 36.0979H26.829C27.7346 36.0979 28.6032 35.7382 29.2435 35.0978C29.8839 34.4574 30.2437 33.5889 30.2437 32.6833V19.0247C30.2437 18.1191 29.8839 17.2506 29.2435 16.6102C28.6032 15.9699 27.7346 15.6101 26.829 15.6101H13.1705C12.2649 15.6101 11.3964 15.9699 10.756 16.6102C10.1156 17.2506 9.75586 18.1191 9.75586 19.0247V32.6833C9.75586 33.5889 10.1156 34.4574 10.756 35.0978C11.3964 35.7382 12.2649 36.0979 13.1705 36.0979Z" stroke="#9E9C9C" stroke-width="2.6" stroke-linecap="round" stroke-linejoin="round"/>
</svg>
