<svg width="51" height="51" viewBox="0 0 51 51" fill="none" xmlns="http://www.w3.org/2000/svg">
<path fill-rule="evenodd" clip-rule="evenodd" d="M33.049 22.3425L24.9348 14.1885C22.0165 11.2705 17.3005 11.2705 14.3823 14.1885L6.26803 22.3425C6.00665 22.6033 5.92813 22.997 6.06933 23.3388C6.21053 23.6806 6.54341 23.9027 6.91172 23.9008H8.28685V32.7899C8.29222 36.3925 11.1971 39.3117 14.7822 39.3171H16.1768C16.6793 39.3117 17.0838 38.9008 17.0838 38.3958V30.9082H22.2333V38.3958C22.2332 38.9008 22.6378 39.3117 23.1403 39.3171H24.5349C28.1199 39.3117 31.0248 36.3925 31.0302 32.7899V23.9008H32.4053C32.7737 23.9027 33.1065 23.6806 33.2477 23.3388C33.3889 22.997 33.3104 22.6033 33.049 22.3425ZM15.5982 15.5238C16.6745 14.5169 18.1353 13.9511 19.6585 13.9511C21.1818 13.9511 22.6426 14.5169 23.7189 15.5238L30.3902 21.756H8.92683L15.5982 15.5238ZM24.6412 37.3655C27.2752 37.3601 29.4091 35.2499 29.4146 32.6451V23.707H9.90244V32.6451C9.90792 35.2499 12.0418 37.3601 14.6758 37.3655H15.1642V29.8267C15.1696 29.319 15.5874 28.9102 16.1009 28.9102H23.2162C23.7297 28.9102 24.1475 29.319 24.1529 29.8267V37.3655H24.6412Z" fill="#371B34"/>
<path d="M33.049 22.3425L24.9348 14.1885C22.0165 11.2705 17.3005 11.2705 14.3823 14.1885L6.26803 22.3425C6.00665 22.6033 5.92813 22.997 6.06933 23.3388C6.21053 23.6806 6.54341 23.9027 6.91172 23.9008H8.28685V32.7899C8.29222 36.3925 11.1971 39.3117 14.7822 39.3171H16.1768C16.6793 39.3117 17.0838 38.9008 17.0838 38.3958V30.9082H22.2333V38.3958C22.2332 38.9008 22.6378 39.3117 23.1403 39.3171H24.5349C28.1199 39.3117 31.0248 36.3925 31.0302 32.7899V23.9008H32.4053C32.7737 23.9027 33.1065 23.6806 33.2477 23.3388C33.3889 22.997 33.3104 22.6033 33.049 22.3425Z" fill="#9E9C9C"/>
</svg>
