<svg width="23" height="23" viewBox="0 0 23 23" fill="none" xmlns="http://www.w3.org/2000/svg">
<path d="M2.35154 7.60862C2.62112 7.33914 2.98668 7.18774 3.36786 7.18774C3.74903 7.18774 4.1146 7.33914 4.38417 7.60862L11.4998 14.7242L18.6154 7.60862C18.8865 7.34677 19.2497 7.20188 19.6266 7.20516C20.0035 7.20843 20.364 7.35961 20.6305 7.62614C20.8971 7.89266 21.0482 8.2532 21.0515 8.63011C21.0548 9.00702 20.9099 9.37013 20.648 9.64125L12.5161 17.7732C12.2465 18.0427 11.881 18.1941 11.4998 18.1941C11.1186 18.1941 10.7531 18.0427 10.4835 17.7732L2.35154 9.64125C2.08205 9.37168 1.93066 9.00611 1.93066 8.62494C1.93066 8.24376 2.08205 7.8782 2.35154 7.60862Z" fill="#909090"/>
</svg>
